<svg xmlns="http://www.w3.org/2000/svg" xmlns:xlink="http://www.w3.org/1999/xlink" xml:space="preserve" version="1.1" style="shape-rendering:geometricPrecision;text-rendering:geometricPrecision;image-rendering:optimizeQuality;" viewBox="0 0 846.66 1058.325" x="0px" y="0px" fill-rule="evenodd" clip-rule="evenodd"><defs><style type="text/css">
   
    .fil0 {fill:black;fill-rule:nonzero}
   
  </style></defs><g><path class="fil0" d="M715.31 414.08c-4.05,-2.31 -5.45,-7.49 -3.14,-11.54 2.31,-4.05 7.49,-5.45 11.54,-3.14 7.89,4.52 15.41,9.63 22.49,15.27l0 -166.55 -695.98 0 0 352.01c0,6.99 2.86,13.35 7.44,17.95 4.6,4.58 10.97,7.44 17.95,7.44l397 0c-9.65,-21.91 -15.01,-46.14 -15.01,-71.62 0,-49.11 19.92,-93.61 52.1,-125.79 27.89,-27.89 65.04,-46.57 106.43,-51.05l-16 -16.01c-3.28,-3.3 -3.26,-8.66 0.04,-11.94 3.3,-3.28 8.66,-3.26 11.94,0.04l28.92 28.93c1.79,1.55 2.93,3.85 2.93,6.4 0,2.55 -1.14,4.85 -2.93,6.4l-28.92 28.93c-3.28,3.3 -8.64,3.32 -11.94,0.04 -3.3,-3.28 -3.32,-8.64 -0.04,-11.94l13.48 -13.48c-35.69,4.85 -67.67,21.4 -91.93,45.66 -29.12,29.12 -47.14,69.37 -47.14,113.81 0,42.92 16.94,83.61 47.14,113.81 29.12,29.12 69.37,47.14 113.81,47.14 44.44,0 84.69,-18.02 113.81,-47.14 29.12,-29.12 47.14,-69.37 47.14,-113.81 0,-29.43 -7.89,-57 -21.63,-80.69 -14.26,-24.59 -34.84,-45 -59.5,-59.13zm-613.24 -29.6l0 32.37 -16.94 0 0 -32.37 16.94 0zm408.63 -83.23l-8.47 0 0 -16.94 54.73 0 0 16.94 -46.26 0zm-44.63 0l-362.97 0 0 37.63 -16.94 0 0 -46.1c0,-4.67 3.8,-8.47 8.47,-8.47l371.44 0 0 16.94zm215.74 -150.63c8.14,0 15.51,3.3 20.84,8.63 5.33,5.33 8.63,12.7 8.63,20.84 0,8.14 -3.3,15.51 -8.63,20.84 -5.33,5.33 -12.7,8.63 -20.84,8.63 -8.14,0 -15.51,-3.3 -20.84,-8.63 -5.33,-5.33 -8.63,-12.7 -8.63,-20.84 0,-8.14 3.3,-15.51 8.63,-20.84 5.33,-5.33 12.7,-8.63 20.84,-8.63zm8.86 20.61c-2.26,-2.26 -5.4,-3.67 -8.86,-3.67 -3.46,0 -6.6,1.41 -8.86,3.67 -2.26,2.26 -3.67,5.4 -3.67,8.86 0,3.46 1.41,6.6 3.67,8.86 2.26,2.26 5.4,3.67 8.86,3.67 3.46,0 6.6,-1.41 8.86,-3.67 2.26,-2.26 3.67,-5.4 3.67,-8.86 0,-3.46 -1.41,-6.6 -3.67,-8.86zm-87.66 -20.61c8.14,0 15.51,3.3 20.84,8.63 5.33,5.33 8.63,12.7 8.63,20.84 0,8.14 -3.3,15.51 -8.63,20.84 -5.33,5.33 -12.7,8.63 -20.84,8.63 -8.14,0 -15.51,-3.3 -20.84,-8.63 -5.33,-5.33 -8.63,-12.7 -8.63,-20.84 0,-8.14 3.3,-15.51 8.63,-20.84 5.33,-5.33 12.7,-8.63 20.84,-8.63zm8.86 20.61c-2.26,-2.26 -5.4,-3.67 -8.86,-3.67 -3.46,0 -6.6,1.41 -8.86,3.67 -2.26,2.26 -3.67,5.4 -3.67,8.86 0,3.46 1.41,6.6 3.67,8.86 2.26,2.26 5.4,3.67 8.86,3.67 3.46,0 6.6,-1.41 8.86,-3.67 2.26,-2.26 3.67,-5.4 3.67,-8.86 0,-3.46 -1.41,-6.6 -3.67,-8.86zm-87.66 -20.61c8.14,0 15.51,3.3 20.84,8.63 5.33,5.33 8.63,12.7 8.63,20.84 0,8.14 -3.3,15.51 -8.63,20.84 -5.33,5.33 -12.7,8.63 -20.84,8.63 -8.14,0 -15.51,-3.3 -20.84,-8.63 -5.33,-5.33 -8.63,-12.7 -8.63,-20.84 0,-8.14 3.3,-15.51 8.63,-20.84 5.33,-5.33 12.7,-8.63 20.84,-8.63zm8.86 20.61c-2.26,-2.26 -5.4,-3.67 -8.86,-3.67 -3.46,0 -6.6,1.41 -8.86,3.67 -2.26,2.26 -3.67,5.4 -3.67,8.86 0,3.46 1.41,6.6 3.67,8.86 2.26,2.26 5.4,3.67 8.86,3.67 3.46,0 6.6,-1.41 8.86,-3.67 2.26,-2.26 3.67,-5.4 3.67,-8.86 0,-3.46 -1.41,-6.6 -3.67,-8.86zm-439.47 17.33c-4.67,0 -8.47,-3.8 -8.47,-8.47 0,-4.67 3.8,-8.47 8.47,-8.47l152.13 0c4.67,0 8.47,3.8 8.47,8.47 0,4.67 -3.8,8.47 -8.47,8.47l-152.13 0zm652.6 42.62l0 -73.98c0,-6.98 -2.86,-13.35 -7.44,-17.95 -4.6,-4.58 -10.96,-7.44 -17.95,-7.44l-645.2 0c-6.98,0 -13.35,2.86 -17.95,7.44 -4.58,4.6 -7.44,10.97 -7.44,17.95l0 73.98 695.98 0zm16.94 198.85c10.11,10.42 18.96,22.08 26.29,34.72 15.22,26.23 23.95,56.69 23.95,89.15 0,49.13 -19.92,93.61 -52.1,125.79 -32.18,32.18 -76.66,52.1 -125.79,52.1 -49.11,0 -93.61,-19.92 -125.79,-52.1 -11.06,-11.06 -20.67,-23.57 -28.52,-37.23l-405.57 0c-11.61,0 -22.2,-4.77 -29.87,-12.42 -7.69,-7.71 -12.46,-18.29 -12.46,-29.91 0,-147.64 0,-295.29 0,-442.93 0,-11.61 4.77,-22.2 12.42,-29.87 7.71,-7.69 18.3,-12.46 29.91,-12.46l645.2 0c11.62,0 22.2,4.77 29.87,12.42 7.69,7.71 12.46,18.3 12.46,29.91 0,90.94 0,181.89 0,272.83z"/></g><text x="0" y="861.66" fill="#000000" font-size="5px" font-weight="bold" font-family="'Helvetica Neue', Helvetica, Arial-Unicode, Arial, Sans-serif">Created by wahid zain</text><text x="0" y="866.66" fill="#000000" font-size="5px" font-weight="bold" font-family="'Helvetica Neue', Helvetica, Arial-Unicode, Arial, Sans-serif">from the Noun Project</text></svg>